<?xml version="1.0" encoding="UTF-8" standalone="no"?>
<!DOCTYPE svg PUBLIC "-//W3C//DTD SVG 1.1//EN"
 "http://www.w3.org/Graphics/SVG/1.1/DTD/svg11.dtd">
<!-- Generated by graphviz version 2.40.1 (20161225.0304)
 -->
<!-- Title: prisma Pages: 1 -->
<svg width="859pt" height="731pt"
 viewBox="0.00 0.00 859.03 731.20" xmlns="http://www.w3.org/2000/svg" xmlns:xlink="http://www.w3.org/1999/xlink">
<g id="graph0" class="graph" transform="scale(1 1) rotate(0) translate(4 727.2)">
<title>prisma</title>
<polygon fill="#ffffff" stroke="transparent" points="-4,4 -4,-727.2 855.0273,-727.2 855.0273,4 -4,4"/>
<!-- ldp_r -->
<g id="node1" class="node">
<title>ldp_r</title>
<path fill="#d6eaf8" stroke="#1a5276" stroke-width="1.2" d="M194,-723.4017C194,-723.4017 16,-723.4017 16,-723.4017 10,-723.4017 4,-717.4017 4,-711.4017 4,-711.4017 4,-688.5983 4,-688.5983 4,-682.5983 10,-676.5983 16,-676.5983 16,-676.5983 194,-676.5983 194,-676.5983 200,-676.5983 206,-682.5983 206,-688.5983 206,-688.5983 206,-711.4017 206,-711.4017 206,-717.4017 200,-723.4017 194,-723.4017"/>
<text text-anchor="middle" x="105" y="-708.1" font-family="Helvetica,sans-Serif" font-weight="bold" font-size="9.00" fill="#000000">LDP PUBLICATIONS</text>
<text text-anchor="middle" x="105" y="-697.3" font-family="Helvetica,sans-Serif" font-weight="bold" font-size="9.00" fill="#000000">Retrieved via OpenAlex</text>
<text text-anchor="middle" x="105" y="-686.5" font-family="Helvetica,sans-Serif" font-weight="bold" font-size="9.00" fill="#000000">n = 55 &#160;| &#160;23 authors</text>
</g>
<!-- ldp_0 -->
<g id="node2" class="node">
<title>ldp_0</title>
<path fill="#d6eaf8" stroke="#1a5276" stroke-width="1.2" d="M194,-637.0017C194,-637.0017 16,-637.0017 16,-637.0017 10,-637.0017 4,-631.0017 4,-625.0017 4,-625.0017 4,-602.1983 4,-602.1983 4,-596.1983 10,-590.1983 16,-590.1983 16,-590.1983 194,-590.1983 194,-590.1983 200,-590.1983 206,-596.1983 206,-602.1983 206,-602.1983 206,-625.0017 206,-625.0017 206,-631.0017 200,-637.0017 194,-637.0017"/>
<text text-anchor="middle" x="105" y="-621.7" font-family="Helvetica,sans-Serif" font-size="9.00" fill="#000000">After investigator</text>
<text text-anchor="middle" x="105" y="-610.9" font-family="Helvetica,sans-Serif" font-size="9.00" fill="#000000">co&#45;authorship exclusion</text>
<text text-anchor="middle" x="105" y="-600.1" font-family="Helvetica,sans-Serif" font-size="9.00" fill="#000000">n = 54</text>
</g>
<!-- ldp_r&#45;&gt;ldp_0 -->
<g id="edge1" class="edge">
<title>ldp_r&#45;&gt;ldp_0</title>
<path fill="none" stroke="#000000" d="M105,-676.3908C105,-676.3908 105,-643.8815 105,-643.8815"/>
<polygon fill="#000000" stroke="#000000" points="107.4501,-643.8815 105,-636.8815 102.5501,-643.8815 107.4501,-643.8815"/>
</g>
<!-- comp_r -->
<g id="node5" class="node">
<title>comp_r</title>
<path fill="#d5f5e3" stroke="#1d6a39" stroke-width="1.2" d="M436,-723.4017C436,-723.4017 258,-723.4017 258,-723.4017 252,-723.4017 246,-717.4017 246,-711.4017 246,-711.4017 246,-688.5983 246,-688.5983 246,-682.5983 252,-676.5983 258,-676.5983 258,-676.5983 436,-676.5983 436,-676.5983 442,-676.5983 448,-682.5983 448,-688.5983 448,-688.5983 448,-711.4017 448,-711.4017 448,-717.4017 442,-723.4017 436,-723.4017"/>
<text text-anchor="middle" x="347" y="-708.1" font-family="Helvetica,sans-Serif" font-weight="bold" font-size="9.00" fill="#000000">COMPARATOR PUBLICATIONS</text>
<text text-anchor="middle" x="347" y="-697.3" font-family="Helvetica,sans-Serif" font-weight="bold" font-size="9.00" fill="#000000">Retrieved via OpenAlex</text>
<text text-anchor="middle" x="347" y="-686.5" font-family="Helvetica,sans-Serif" font-weight="bold" font-size="9.00" fill="#000000">n = 262 &#160;| &#160;109 authors</text>
</g>
<!-- ldp_r&#45;&gt;comp_r -->
<!-- e_L0 -->
<g id="node9" class="node">
<title>e_L0</title>
<path fill="#fadbd8" stroke="#922b21" stroke-width="1.2" d="M437.5413,-637.0017C437.5413,-637.0017 258.4587,-637.0017 258.4587,-637.0017 252.4587,-637.0017 246.4587,-631.0017 246.4587,-625.0017 246.4587,-625.0017 246.4587,-602.1983 246.4587,-602.1983 246.4587,-596.1983 252.4587,-590.1983 258.4587,-590.1983 258.4587,-590.1983 437.5413,-590.1983 437.5413,-590.1983 443.5413,-590.1983 449.5413,-596.1983 449.5413,-602.1983 449.5413,-602.1983 449.5413,-625.0017 449.5413,-625.0017 449.5413,-631.0017 443.5413,-637.0017 437.5413,-637.0017"/>
<text text-anchor="middle" x="348" y="-621.7" font-family="Helvetica,sans-Serif" font-size="9.00" fill="#000000">Layer 0 &#45; Investigator co&#45;authorship exclusion</text>
<text text-anchor="middle" x="348" y="-610.9" font-family="Helvetica,sans-Serif" font-size="9.00" fill="#000000">LDP: excluded n = 1</text>
<text text-anchor="middle" x="348" y="-600.1" font-family="Helvetica,sans-Serif" font-size="9.00" fill="#000000">Comparator: excluded n = 4</text>
</g>
<!-- ldp_r&#45;&gt;e_L0 -->
<g id="edge12" class="edge">
<title>ldp_r&#45;&gt;e_L0</title>
<path fill="none" stroke="#a93226" stroke-dasharray="5,2" d="M206.0761,-707C221.7617,-707 232.885,-707 232.885,-707 232.885,-707 232.885,-625 232.885,-625 232.885,-625 239.0901,-625 239.0901,-625"/>
<polygon fill="#a93226" stroke="#a93226" points="239.0901,-627.4501 246.0901,-625 239.0901,-622.5501 239.0901,-627.4501"/>
</g>
<!-- ldp_1 -->
<g id="node3" class="node">
<title>ldp_1</title>
<path fill="#d6eaf8" stroke="#1a5276" stroke-width="1.2" d="M194,-545.2017C194,-545.2017 16,-545.2017 16,-545.2017 10,-545.2017 4,-539.2017 4,-533.2017 4,-533.2017 4,-510.3983 4,-510.3983 4,-504.3983 10,-498.3983 16,-498.3983 16,-498.3983 194,-498.3983 194,-498.3983 200,-498.3983 206,-504.3983 206,-510.3983 206,-510.3983 206,-533.2017 206,-533.2017 206,-539.2017 200,-545.2017 194,-545.2017"/>
<text text-anchor="middle" x="105" y="-529.9" font-family="Helvetica,sans-Serif" font-size="9.00" fill="#000000">After title</text>
<text text-anchor="middle" x="105" y="-519.1" font-family="Helvetica,sans-Serif" font-size="9.00" fill="#000000">deduplication</text>
<text text-anchor="middle" x="105" y="-508.3" font-family="Helvetica,sans-Serif" font-size="9.00" fill="#000000">n = 54</text>
</g>
<!-- ldp_0&#45;&gt;ldp_1 -->
<g id="edge2" class="edge">
<title>ldp_0&#45;&gt;ldp_1</title>
<path fill="none" stroke="#000000" d="M105,-589.9592C105,-589.9592 105,-552.0429 105,-552.0429"/>
<polygon fill="#000000" stroke="#000000" points="107.4501,-552.0428 105,-545.0429 102.5501,-552.0429 107.4501,-552.0428"/>
</g>
<!-- ldp_0&#45;&gt;e_L0 -->
<!-- e_L1 -->
<g id="node10" class="node">
<title>e_L1</title>
<path fill="#fadbd8" stroke="#922b21" stroke-width="1.2" d="M437,-550.5004C437,-550.5004 259,-550.5004 259,-550.5004 253,-550.5004 247,-544.5004 247,-538.5004 247,-538.5004 247,-505.0996 247,-505.0996 247,-499.0996 253,-493.0996 259,-493.0996 259,-493.0996 437,-493.0996 437,-493.0996 443,-493.0996 449,-499.0996 449,-505.0996 449,-505.0996 449,-538.5004 449,-538.5004 449,-544.5004 443,-550.5004 437,-550.5004"/>
<text text-anchor="middle" x="348" y="-535.3" font-family="Helvetica,sans-Serif" font-size="9.00" fill="#000000">Layer 1 &#45; Title deduplication</text>
<text text-anchor="middle" x="348" y="-524.5" font-family="Helvetica,sans-Serif" font-size="9.00" fill="#000000">LDP: none excluded</text>
<text text-anchor="middle" x="348" y="-513.7" font-family="Helvetica,sans-Serif" font-size="9.00" fill="#000000">Comparator: excluded n = 8</text>
<text text-anchor="middle" x="348" y="-502.9" font-family="Helvetica,sans-Serif" font-size="9.00" fill="#000000"> &#160;(within&#45;author: 5; &#160;cross&#45;author: 3)</text>
</g>
<!-- ldp_0&#45;&gt;e_L1 -->
<g id="edge14" class="edge">
<title>ldp_0&#45;&gt;e_L1</title>
<path fill="none" stroke="#a93226" stroke-dasharray="5,2" d="M206.1193,-613C216.8349,-613 223.9233,-613 223.9233,-613 223.9233,-613 223.9233,-533 223.9233,-533 223.9233,-533 239.9704,-533 239.9704,-533"/>
<polygon fill="#a93226" stroke="#a93226" points="239.9704,-535.4501 246.9704,-533 239.9704,-530.5501 239.9704,-535.4501"/>
</g>
<!-- ldp_23 -->
<g id="node4" class="node">
<title>ldp_23</title>
<path fill="#d6eaf8" stroke="#1a5276" stroke-width="1.2" d="M190,-448.0017C190,-448.0017 12,-448.0017 12,-448.0017 6,-448.0017 0,-442.0017 0,-436.0017 0,-436.0017 0,-413.1983 0,-413.1983 0,-407.1983 6,-401.1983 12,-401.1983 12,-401.1983 190,-401.1983 190,-401.1983 196,-401.1983 202,-407.1983 202,-413.1983 202,-413.1983 202,-436.0017 202,-436.0017 202,-442.0017 196,-448.0017 190,-448.0017"/>
<text text-anchor="middle" x="101" y="-432.7" font-family="Helvetica,sans-Serif" font-size="9.00" fill="#000000">After type and keyword</text>
<text text-anchor="middle" x="101" y="-421.9" font-family="Helvetica,sans-Serif" font-size="9.00" fill="#000000">screening</text>
<text text-anchor="middle" x="101" y="-411.1" font-family="Helvetica,sans-Serif" font-size="9.00" fill="#000000">n = 53 &#160;| &#160;22 authors eligible</text>
</g>
<!-- ldp_1&#45;&gt;ldp_23 -->
<g id="edge3" class="edge">
<title>ldp_1&#45;&gt;ldp_23</title>
<path fill="none" stroke="#000000" d="M103,-498.2706C103,-498.2706 103,-454.9127 103,-454.9127"/>
<polygon fill="#000000" stroke="#000000" points="105.4501,-454.9127 103,-447.9127 100.5501,-454.9128 105.4501,-454.9127"/>
</g>
<!-- ldp_1&#45;&gt;e_L1 -->
<!-- e_L23 -->
<g id="node11" class="node">
<title>e_L23</title>
<path fill="#fadbd8" stroke="#922b21" stroke-width="1.2" d="M442.307,-453.3004C442.307,-453.3004 253.693,-453.3004 253.693,-453.3004 247.693,-453.3004 241.693,-447.3004 241.693,-441.3004 241.693,-441.3004 241.693,-407.8996 241.693,-407.8996 241.693,-401.8996 247.693,-395.8996 253.693,-395.8996 253.693,-395.8996 442.307,-395.8996 442.307,-395.8996 448.307,-395.8996 454.307,-401.8996 454.307,-407.8996 454.307,-407.8996 454.307,-441.3004 454.307,-441.3004 454.307,-447.3004 448.307,-453.3004 442.307,-453.3004"/>
<text text-anchor="middle" x="348" y="-438.1" font-family="Helvetica,sans-Serif" font-size="9.00" fill="#000000">Layers 2a/2b + 3 &#45; Type and keyword screening</text>
<text text-anchor="middle" x="348" y="-427.3" font-family="Helvetica,sans-Serif" font-size="9.00" fill="#000000">LDP: excluded n = 1 &#160;(keyword match)</text>
<text text-anchor="middle" x="348" y="-416.5" font-family="Helvetica,sans-Serif" font-size="9.00" fill="#000000">Comparator: excluded n = 2 &#160;(keyword match)</text>
<text text-anchor="middle" x="348" y="-405.7" font-family="Helvetica,sans-Serif" font-size="9.00" fill="#000000">[Layers 2a/2b: none excluded in either group]</text>
</g>
<!-- ldp_1&#45;&gt;e_L23 -->
<g id="edge16" class="edge">
<title>ldp_1&#45;&gt;e_L23</title>
<path fill="none" stroke="#a93226" stroke-dasharray="5,2" d="M206.3331,-521C211.7133,-521 214.9617,-521 214.9617,-521 214.9617,-521 214.9617,-432 214.9617,-432 214.9617,-432 234.5642,-432 234.5642,-432"/>
<polygon fill="#a93226" stroke="#a93226" points="234.5642,-434.4501 241.5642,-432 234.5642,-429.5501 234.5642,-434.4501"/>
</g>
<!-- ldp_23&#45;&gt;e_L23 -->
<!-- match -->
<g id="node12" class="node">
<title>match</title>
<path fill="#fef9e7" stroke="#7d6608" stroke-width="1.2" d="M566.5,-350.8C566.5,-350.8 129.5,-350.8 129.5,-350.8 123.5,-350.8 117.5,-344.8 117.5,-338.8 117.5,-338.8 117.5,-326.8 117.5,-326.8 117.5,-320.8 123.5,-314.8 129.5,-314.8 129.5,-314.8 566.5,-314.8 566.5,-314.8 572.5,-314.8 578.5,-320.8 578.5,-326.8 578.5,-326.8 578.5,-338.8 578.5,-338.8 578.5,-344.8 572.5,-350.8 566.5,-350.8"/>
<text text-anchor="middle" x="348" y="-335.5" font-family="Helvetica,sans-Serif" font-size="9.00" fill="#000000">Year&#45; and institution&#45;matched pairs formed &#160;(Script 04; &#160;seed = 20260329)</text>
<text text-anchor="middle" x="348" y="-324.7" font-family="Helvetica,sans-Serif" font-size="9.00" fill="#000000">n = 21 pairs</text>
</g>
<!-- ldp_23&#45;&gt;match -->
<g id="edge4" class="edge">
<title>ldp_23&#45;&gt;match</title>
<path fill="none" stroke="#000000" d="M145.6667,-400.9592C145.6667,-400.9592 145.6667,-357.8528 145.6667,-357.8528"/>
<polygon fill="#000000" stroke="#000000" points="148.1168,-357.8528 145.6667,-350.8528 143.2168,-357.8529 148.1168,-357.8528"/>
</g>
<!-- e_match -->
<g id="node13" class="node">
<title>e_match</title>
<path fill="#fadbd8" stroke="#922b21" stroke-width="1.2" d="M809,-356.2017C809,-356.2017 631,-356.2017 631,-356.2017 625,-356.2017 619,-350.2017 619,-344.2017 619,-344.2017 619,-321.3983 619,-321.3983 619,-315.3983 625,-309.3983 631,-309.3983 631,-309.3983 809,-309.3983 809,-309.3983 815,-309.3983 821,-315.3983 821,-321.3983 821,-321.3983 821,-344.2017 821,-344.2017 821,-350.2017 815,-356.2017 809,-356.2017"/>
<text text-anchor="middle" x="720" y="-340.9" font-family="Helvetica,sans-Serif" font-size="9.00" fill="#000000">1 LDP author unmatched</text>
<text text-anchor="middle" x="720" y="-330.1" font-family="Helvetica,sans-Serif" font-size="9.00" fill="#000000">No comparator available at same</text>
<text text-anchor="middle" x="720" y="-319.3" font-family="Helvetica,sans-Serif" font-size="9.00" fill="#000000">institution and calendar year</text>
</g>
<!-- ldp_23&#45;&gt;e_match -->
<g id="edge18" class="edge">
<title>ldp_23&#45;&gt;e_match</title>
<path fill="none" stroke="#a93226" stroke-dasharray="5,2" d="M173.8333,-401.2524C173.8333,-388.3877 173.8333,-375 173.8333,-375 173.8333,-375 657.5,-375 657.5,-375 657.5,-375 657.5,-363.3676 657.5,-363.3676"/>
<polygon fill="#a93226" stroke="#a93226" points="659.9501,-363.3676 657.5,-356.3676 655.0501,-363.3677 659.9501,-363.3676"/>
</g>
<!-- comp_0 -->
<g id="node6" class="node">
<title>comp_0</title>
<path fill="#d5f5e3" stroke="#1d6a39" stroke-width="1.2" d="M680,-637.0017C680,-637.0017 502,-637.0017 502,-637.0017 496,-637.0017 490,-631.0017 490,-625.0017 490,-625.0017 490,-602.1983 490,-602.1983 490,-596.1983 496,-590.1983 502,-590.1983 502,-590.1983 680,-590.1983 680,-590.1983 686,-590.1983 692,-596.1983 692,-602.1983 692,-602.1983 692,-625.0017 692,-625.0017 692,-631.0017 686,-637.0017 680,-637.0017"/>
<text text-anchor="middle" x="591" y="-621.7" font-family="Helvetica,sans-Serif" font-size="9.00" fill="#000000">After investigator</text>
<text text-anchor="middle" x="591" y="-610.9" font-family="Helvetica,sans-Serif" font-size="9.00" fill="#000000">co&#45;authorship exclusion</text>
<text text-anchor="middle" x="591" y="-600.1" font-family="Helvetica,sans-Serif" font-size="9.00" fill="#000000">n = 258</text>
</g>
<!-- comp_r&#45;&gt;comp_0 -->
<g id="edge5" class="edge">
<title>comp_r&#45;&gt;comp_0</title>
<path fill="none" stroke="#000000" d="M448.0055,-699C515.1314,-699 591,-699 591,-699 591,-699 591,-643.9359 591,-643.9359"/>
<polygon fill="#000000" stroke="#000000" points="593.4501,-643.9359 591,-636.9359 588.5501,-643.936 593.4501,-643.9359"/>
</g>
<!-- comp_r&#45;&gt;e_L0 -->
<g id="edge13" class="edge">
<title>comp_r&#45;&gt;e_L0</title>
<path fill="none" stroke="#a93226" stroke-dasharray="5,2" d="M347.1148,-676.3908C347.1148,-676.3908 347.1148,-643.8815 347.1148,-643.8815"/>
<polygon fill="#a93226" stroke="#a93226" points="349.5649,-643.8815 347.1148,-636.8815 344.6649,-643.8815 349.5649,-643.8815"/>
</g>
<!-- comp_1 -->
<g id="node7" class="node">
<title>comp_1</title>
<path fill="#d5f5e3" stroke="#1d6a39" stroke-width="1.2" d="M680,-545.2017C680,-545.2017 502,-545.2017 502,-545.2017 496,-545.2017 490,-539.2017 490,-533.2017 490,-533.2017 490,-510.3983 490,-510.3983 490,-504.3983 496,-498.3983 502,-498.3983 502,-498.3983 680,-498.3983 680,-498.3983 686,-498.3983 692,-504.3983 692,-510.3983 692,-510.3983 692,-533.2017 692,-533.2017 692,-539.2017 686,-545.2017 680,-545.2017"/>
<text text-anchor="middle" x="591" y="-529.9" font-family="Helvetica,sans-Serif" font-size="9.00" fill="#000000">After title</text>
<text text-anchor="middle" x="591" y="-519.1" font-family="Helvetica,sans-Serif" font-size="9.00" fill="#000000">deduplication</text>
<text text-anchor="middle" x="591" y="-508.3" font-family="Helvetica,sans-Serif" font-size="9.00" fill="#000000">n = 250</text>
</g>
<!-- comp_0&#45;&gt;comp_1 -->
<g id="edge6" class="edge">
<title>comp_0&#45;&gt;comp_1</title>
<path fill="none" stroke="#000000" d="M591,-589.9592C591,-589.9592 591,-552.0429 591,-552.0429"/>
<polygon fill="#000000" stroke="#000000" points="593.4501,-552.0428 591,-545.0429 588.5501,-552.0429 593.4501,-552.0428"/>
</g>
<!-- comp_0&#45;&gt;e_L1 -->
<g id="edge15" class="edge">
<title>comp_0&#45;&gt;e_L1</title>
<path fill="none" stroke="#a93226" stroke-dasharray="5,2" d="M489.8886,-621C475.8451,-621 466.1023,-621 466.1023,-621 466.1023,-621 466.1023,-533 466.1023,-533 466.1023,-533 456.1811,-533 456.1811,-533"/>
<polygon fill="#a93226" stroke="#a93226" points="456.1811,-530.5501 449.1811,-533 456.1811,-535.4501 456.1811,-530.5501"/>
</g>
<!-- comp_23 -->
<g id="node8" class="node">
<title>comp_23</title>
<path fill="#d5f5e3" stroke="#1d6a39" stroke-width="1.2" d="M684,-448.0017C684,-448.0017 506,-448.0017 506,-448.0017 500,-448.0017 494,-442.0017 494,-436.0017 494,-436.0017 494,-413.1983 494,-413.1983 494,-407.1983 500,-401.1983 506,-401.1983 506,-401.1983 684,-401.1983 684,-401.1983 690,-401.1983 696,-407.1983 696,-413.1983 696,-413.1983 696,-436.0017 696,-436.0017 696,-442.0017 690,-448.0017 684,-448.0017"/>
<text text-anchor="middle" x="595" y="-432.7" font-family="Helvetica,sans-Serif" font-size="9.00" fill="#000000">After type and keyword</text>
<text text-anchor="middle" x="595" y="-421.9" font-family="Helvetica,sans-Serif" font-size="9.00" fill="#000000">screening</text>
<text text-anchor="middle" x="595" y="-411.1" font-family="Helvetica,sans-Serif" font-size="9.00" fill="#000000">n = 248 &#160;| &#160;105 authors eligible</text>
</g>
<!-- comp_1&#45;&gt;comp_23 -->
<g id="edge7" class="edge">
<title>comp_1&#45;&gt;comp_23</title>
<path fill="none" stroke="#000000" d="M593,-498.2706C593,-498.2706 593,-454.9127 593,-454.9127"/>
<polygon fill="#000000" stroke="#000000" points="595.4501,-454.9127 593,-447.9127 590.5501,-454.9128 595.4501,-454.9127"/>
</g>
<!-- comp_1&#45;&gt;e_L23 -->
<g id="edge17" class="edge">
<title>comp_1&#45;&gt;e_L23</title>
<path fill="none" stroke="#a93226" stroke-dasharray="5,2" d="M489.7132,-521C482.5339,-521 478.0511,-521 478.0511,-521 478.0511,-521 478.0511,-432 478.0511,-432 478.0511,-432 461.1978,-432 461.1978,-432"/>
<polygon fill="#a93226" stroke="#a93226" points="461.1978,-429.5501 454.1978,-432 461.1977,-434.4501 461.1978,-429.5501"/>
</g>
<!-- comp_23&#45;&gt;match -->
<g id="edge8" class="edge">
<title>comp_23&#45;&gt;match</title>
<path fill="none" stroke="#000000" d="M536.25,-400.9592C536.25,-400.9592 536.25,-357.8528 536.25,-357.8528"/>
<polygon fill="#000000" stroke="#000000" points="538.7001,-357.8528 536.25,-350.8528 533.8001,-357.8529 538.7001,-357.8528"/>
</g>
<!-- e_L0&#45;&gt;comp_0 -->
<!-- e_L1&#45;&gt;comp_1 -->
<!-- e_L23&#45;&gt;comp_23 -->
<!-- match&#45;&gt;e_match -->
<!-- drop -->
<g id="node14" class="node">
<title>drop</title>
<path fill="#fef9e7" stroke="#7d6608" stroke-width="1.2" d="M566.5,-269.7004C566.5,-269.7004 129.5,-269.7004 129.5,-269.7004 123.5,-269.7004 117.5,-263.7004 117.5,-257.7004 117.5,-257.7004 117.5,-224.2996 117.5,-224.2996 117.5,-218.2996 123.5,-212.2996 129.5,-212.2996 129.5,-212.2996 566.5,-212.2996 566.5,-212.2996 572.5,-212.2996 578.5,-218.2996 578.5,-224.2996 578.5,-224.2996 578.5,-257.7004 578.5,-257.7004 578.5,-263.7004 572.5,-269.7004 566.5,-269.7004"/>
<text text-anchor="middle" x="348" y="-254.5" font-family="Helvetica,sans-Serif" font-size="9.00" fill="#000000">2 complete pairs dropped &#45; no eligible LDP replacement &#160;(Script 06)</text>
<text text-anchor="middle" x="348" y="-243.7" font-family="Helvetica,sans-Serif" font-size="9.00" fill="#000000">PAIR006 &#160;(McGill, 2024): LDP publication was not primary research</text>
<text text-anchor="middle" x="348" y="-232.9" font-family="Helvetica,sans-Serif" font-size="9.00" fill="#000000">PAIR020 &#160;(UBC, 2024): LDP publication was a conference abstract</text>
<text text-anchor="middle" x="348" y="-222.1" font-family="Helvetica,sans-Serif" font-size="9.00" fill="#000000">n = 19 pairs</text>
</g>
<!-- match&#45;&gt;drop -->
<g id="edge9" class="edge">
<title>match&#45;&gt;drop</title>
<path fill="none" stroke="#000000" d="M348,-314.6633C348,-314.6633 348,-276.9398 348,-276.9398"/>
<polygon fill="#000000" stroke="#000000" points="350.4501,-276.9397 348,-269.9398 345.5501,-276.9398 350.4501,-276.9397"/>
</g>
<!-- e_drop -->
<g id="node15" class="node">
<title>e_drop</title>
<path fill="#fadbd8" stroke="#922b21" stroke-width="1.2" d="M809,-259C809,-259 631,-259 631,-259 625,-259 619,-253 619,-247 619,-247 619,-235 619,-235 619,-229 625,-223 631,-223 631,-223 809,-223 809,-223 815,-223 821,-229 821,-235 821,-235 821,-247 821,-247 821,-253 815,-259 809,-259"/>
<text text-anchor="middle" x="720" y="-243.7" font-family="Helvetica,sans-Serif" font-size="9.00" fill="#000000">Dropped: 2 pairs</text>
<text text-anchor="middle" x="720" y="-232.9" font-family="Helvetica,sans-Serif" font-size="9.00" fill="#000000">(4 publications removed)</text>
</g>
<!-- match&#45;&gt;e_drop -->
<g id="edge19" class="edge">
<title>match&#45;&gt;e_drop</title>
<path fill="none" stroke="#a93226" stroke-dasharray="5,2" d="M578.6414,-338C591.16,-338 598.7364,-338 598.7364,-338 598.7364,-338 598.7364,-247 598.7364,-247 598.7364,-247 611.7606,-247 611.7606,-247"/>
<polygon fill="#a93226" stroke="#a93226" points="611.7606,-249.4501 618.7606,-247 611.7605,-244.5501 611.7606,-249.4501"/>
</g>
<!-- drop&#45;&gt;e_drop -->
<!-- replace -->
<g id="node16" class="node">
<title>replace</title>
<path fill="#fef9e7" stroke="#7d6608" stroke-width="1.2" d="M566.5,-151C566.5,-151 129.5,-151 129.5,-151 123.5,-151 117.5,-145 117.5,-139 117.5,-139 117.5,-127 117.5,-127 117.5,-121 123.5,-115 129.5,-115 129.5,-115 566.5,-115 566.5,-115 572.5,-115 578.5,-121 578.5,-127 578.5,-127 578.5,-139 578.5,-139 578.5,-145 572.5,-151 566.5,-151"/>
<text text-anchor="middle" x="348" y="-135.7" font-family="Helvetica,sans-Serif" font-size="9.00" fill="#000000">4 comparator publications replaced within intact pairs &#160;(Scripts 07&#45;08)</text>
<text text-anchor="middle" x="348" y="-124.9" font-family="Helvetica,sans-Serif" font-size="9.00" fill="#000000">n = 19 pairs &#160;(unchanged)</text>
</g>
<!-- drop&#45;&gt;replace -->
<g id="edge10" class="edge">
<title>drop&#45;&gt;replace</title>
<path fill="none" stroke="#000000" d="M348,-212.3415C348,-212.3415 348,-158.2587 348,-158.2587"/>
<polygon fill="#000000" stroke="#000000" points="350.4501,-158.2586 348,-151.2587 345.5501,-158.2587 350.4501,-158.2586"/>
</g>
<!-- e_replace -->
<g id="node17" class="node">
<title>e_replace</title>
<path fill="#fff3cd" stroke="#7d6608" stroke-width="1.2" d="M839.0546,-172.3003C839.0546,-172.3003 630.9454,-172.3003 630.9454,-172.3003 624.9454,-172.3003 618.9454,-166.3003 618.9454,-160.3003 618.9454,-160.3003 618.9454,-105.6997 618.9454,-105.6997 618.9454,-99.6997 624.9454,-93.6997 630.9454,-93.6997 630.9454,-93.6997 839.0546,-93.6997 839.0546,-93.6997 845.0546,-93.6997 851.0546,-99.6997 851.0546,-105.6997 851.0546,-105.6997 851.0546,-160.3003 851.0546,-160.3003 851.0546,-166.3003 845.0546,-172.3003 839.0546,-172.3003"/>
<text text-anchor="middle" x="735" y="-157.3" font-family="Helvetica,sans-Serif" font-size="9.00" fill="#000000">Script 07 &#45; replaced (ineligible): n = 3</text>
<text text-anchor="middle" x="735" y="-146.5" font-family="Helvetica,sans-Serif" font-size="9.00" fill="#000000"> &#160;R75BCN &#160;PAIR021: case study</text>
<text text-anchor="middle" x="735" y="-135.7" font-family="Helvetica,sans-Serif" font-size="9.00" fill="#000000"> &#160;OZ2HY7 &#160;PAIR017: corresponding&#45;author duplicate</text>
<text text-anchor="middle" x="735" y="-124.9" font-family="Helvetica,sans-Serif" font-size="9.00" fill="#000000"> &#160;TILMW1 &#160;PAIR019: conference abstract</text>
<text text-anchor="middle" x="735" y="-114.1" font-family="Helvetica,sans-Serif" font-size="9.00" fill="#000000">Script 08 &#45; replaced (inaccessible): n = 1</text>
<text text-anchor="middle" x="735" y="-103.3" font-family="Helvetica,sans-Serif" font-size="9.00" fill="#000000"> &#160;N3V3VY &#160;PAIR017: journal unavailable via UBC</text>
</g>
<!-- drop&#45;&gt;e_replace -->
<g id="edge20" class="edge">
<title>drop&#45;&gt;e_replace</title>
<path fill="none" stroke="#7d6608" stroke-dasharray="5,2" d="M578.567,-217C654.5561,-217 720,-217 720,-217 720,-217 720,-179.5403 720,-179.5403"/>
<polygon fill="#7d6608" stroke="#7d6608" points="722.4501,-179.5403 720,-172.5403 717.5501,-179.5403 722.4501,-179.5403"/>
</g>
<!-- replace&#45;&gt;e_replace -->
<!-- final -->
<g id="node18" class="node">
<title>final</title>
<path fill="#82e0aa" stroke="#1d6a39" stroke-width="1.2" d="M566.5,-53.4015C566.5,-53.4015 129.5,-53.4015 129.5,-53.4015 123.5,-53.4015 117.5,-47.4015 117.5,-41.4015 117.5,-41.4015 117.5,-12.1985 117.5,-12.1985 117.5,-6.1985 123.5,-.1985 129.5,-.1985 129.5,-.1985 566.5,-.1985 566.5,-.1985 572.5,-.1985 578.5,-6.1985 578.5,-12.1985 578.5,-12.1985 578.5,-41.4015 578.5,-41.4015 578.5,-47.4015 572.5,-53.4015 566.5,-53.4015"/>
<text text-anchor="middle" x="348" y="-36.7" font-family="Helvetica,sans-Serif" font-size="11.00" fill="#000000">FINAL RATER SET</text>
<text text-anchor="middle" x="348" y="-23.5" font-family="Helvetica,sans-Serif" font-size="11.00" fill="#000000">19 matched pairs</text>
<text text-anchor="middle" x="348" y="-10.3" font-family="Helvetica,sans-Serif" font-size="11.00" fill="#000000">(19 LDP publications &#160;+ &#160;19 Comparator publications)</text>
</g>
<!-- replace&#45;&gt;final -->
<g id="edge11" class="edge">
<title>replace&#45;&gt;final</title>
<path fill="none" stroke="#000000" d="M348,-114.9846C348,-114.9846 348,-60.6888 348,-60.6888"/>
<polygon fill="#000000" stroke="#000000" points="350.4501,-60.6888 348,-53.6888 345.5501,-60.6889 350.4501,-60.6888"/>
</g>
</g>
</svg>

